<mxfile host="Electron" agent="Mozilla/5.0 (Windows NT 10.0; Win64; x64) AppleWebKit/537.36 (KHTML, like Gecko) draw.io/26.2.15 Chrome/134.0.6998.205 Electron/35.2.1 Safari/537.36" version="26.2.15">
  <diagram name="Página-1" id="uZzyhjgBhw_PQh9QX7lD">
    <mxGraphModel dx="872" dy="577" grid="1" gridSize="10" guides="1" tooltips="1" connect="1" arrows="1" fold="1" page="1" pageScale="1" pageWidth="827" pageHeight="1169" math="0" shadow="0">
      <root>
        <mxCell id="0" />
        <mxCell id="1" parent="0" />
        <mxCell id="7xtOGn-ExboBB5QlbtIo-1" value="Administrador" style="shape=umlActor;verticalLabelPosition=bottom;verticalAlign=top;html=1;outlineConnect=0;" vertex="1" parent="1">
          <mxGeometry x="41" y="160" width="30" height="60" as="geometry" />
        </mxCell>
        <mxCell id="7xtOGn-ExboBB5QlbtIo-4" value="Diseñador" style="shape=umlActor;verticalLabelPosition=bottom;verticalAlign=top;html=1;outlineConnect=0;" vertex="1" parent="1">
          <mxGeometry x="41" y="280" width="30" height="60" as="geometry" />
        </mxCell>
        <mxCell id="7xtOGn-ExboBB5QlbtIo-5" value="Profesor" style="shape=umlActor;verticalLabelPosition=bottom;verticalAlign=top;html=1;outlineConnect=0;" vertex="1" parent="1">
          <mxGeometry x="40" y="402" width="30" height="60" as="geometry" />
        </mxCell>
        <mxCell id="7xtOGn-ExboBB5QlbtIo-7" value="Alumno" style="shape=umlActor;verticalLabelPosition=bottom;verticalAlign=top;html=1;outlineConnect=0;" vertex="1" parent="1">
          <mxGeometry x="41" y="42" width="30" height="60" as="geometry" />
        </mxCell>
        <mxCell id="7xtOGn-ExboBB5QlbtIo-8" value="Usuario" style="shape=umlActor;verticalLabelPosition=bottom;verticalAlign=top;html=1;outlineConnect=0;" vertex="1" parent="1">
          <mxGeometry x="40" y="522" width="30" height="60" as="geometry" />
        </mxCell>
        <mxCell id="7xtOGn-ExboBB5QlbtIo-11" value="Crear rutas" style="rounded=1;whiteSpace=wrap;html=1;" vertex="1" parent="1">
          <mxGeometry x="359" y="41" width="110" height="60" as="geometry" />
        </mxCell>
        <mxCell id="7xtOGn-ExboBB5QlbtIo-26" style="rounded=0;orthogonalLoop=1;jettySize=auto;html=1;exitX=1;exitY=0.5;exitDx=0;exitDy=0;entryX=0;entryY=0.5;entryDx=0;entryDy=0;endArrow=none;startFill=0;" edge="1" parent="1" source="7xtOGn-ExboBB5QlbtIo-12" target="7xtOGn-ExboBB5QlbtIo-25">
          <mxGeometry relative="1" as="geometry" />
        </mxCell>
        <mxCell id="7xtOGn-ExboBB5QlbtIo-27" style="edgeStyle=none;shape=connector;rounded=0;orthogonalLoop=1;jettySize=auto;html=1;exitX=1;exitY=0.5;exitDx=0;exitDy=0;entryX=0;entryY=0.5;entryDx=0;entryDy=0;strokeColor=default;align=center;verticalAlign=middle;fontFamily=Helvetica;fontSize=11;fontColor=default;labelBackgroundColor=default;startFill=0;endArrow=none;" edge="1" parent="1" source="7xtOGn-ExboBB5QlbtIo-12" target="7xtOGn-ExboBB5QlbtIo-23">
          <mxGeometry relative="1" as="geometry" />
        </mxCell>
        <mxCell id="7xtOGn-ExboBB5QlbtIo-12" value="" style="ellipse;whiteSpace=wrap;html=1;" vertex="1" parent="1">
          <mxGeometry x="91" y="50" width="20" height="20" as="geometry" />
        </mxCell>
        <mxCell id="7xtOGn-ExboBB5QlbtIo-40" style="edgeStyle=none;shape=connector;rounded=0;orthogonalLoop=1;jettySize=auto;html=1;exitX=1;exitY=0.5;exitDx=0;exitDy=0;entryX=0;entryY=0.5;entryDx=0;entryDy=0;strokeColor=default;align=center;verticalAlign=middle;fontFamily=Helvetica;fontSize=11;fontColor=default;labelBackgroundColor=default;startFill=0;endArrow=none;" edge="1" parent="1" source="7xtOGn-ExboBB5QlbtIo-14" target="7xtOGn-ExboBB5QlbtIo-19">
          <mxGeometry relative="1" as="geometry" />
        </mxCell>
        <mxCell id="7xtOGn-ExboBB5QlbtIo-41" style="edgeStyle=none;shape=connector;rounded=0;orthogonalLoop=1;jettySize=auto;html=1;exitX=1;exitY=0.5;exitDx=0;exitDy=0;entryX=0;entryY=0.5;entryDx=0;entryDy=0;strokeColor=default;align=center;verticalAlign=middle;fontFamily=Helvetica;fontSize=11;fontColor=default;labelBackgroundColor=default;startFill=0;endArrow=none;" edge="1" parent="1" source="7xtOGn-ExboBB5QlbtIo-14" target="7xtOGn-ExboBB5QlbtIo-11">
          <mxGeometry relative="1" as="geometry" />
        </mxCell>
        <mxCell id="7xtOGn-ExboBB5QlbtIo-46" style="edgeStyle=none;shape=connector;rounded=0;orthogonalLoop=1;jettySize=auto;html=1;exitX=1;exitY=0.5;exitDx=0;exitDy=0;entryX=0;entryY=0.5;entryDx=0;entryDy=0;strokeColor=default;align=center;verticalAlign=middle;fontFamily=Helvetica;fontSize=11;fontColor=default;labelBackgroundColor=default;startFill=0;endArrow=none;" edge="1" parent="1" source="7xtOGn-ExboBB5QlbtIo-14" target="7xtOGn-ExboBB5QlbtIo-21">
          <mxGeometry relative="1" as="geometry" />
        </mxCell>
        <mxCell id="7xtOGn-ExboBB5QlbtIo-47" style="edgeStyle=none;shape=connector;rounded=0;orthogonalLoop=1;jettySize=auto;html=1;exitX=1;exitY=0.5;exitDx=0;exitDy=0;entryX=0;entryY=0.5;entryDx=0;entryDy=0;strokeColor=default;align=center;verticalAlign=middle;fontFamily=Helvetica;fontSize=11;fontColor=default;labelBackgroundColor=default;startFill=0;endArrow=none;" edge="1" parent="1" source="7xtOGn-ExboBB5QlbtIo-14" target="7xtOGn-ExboBB5QlbtIo-23">
          <mxGeometry relative="1" as="geometry" />
        </mxCell>
        <mxCell id="7xtOGn-ExboBB5QlbtIo-49" style="edgeStyle=none;shape=connector;rounded=0;orthogonalLoop=1;jettySize=auto;html=1;exitX=1;exitY=0.5;exitDx=0;exitDy=0;entryX=0;entryY=0.5;entryDx=0;entryDy=0;strokeColor=default;align=center;verticalAlign=middle;fontFamily=Helvetica;fontSize=11;fontColor=default;labelBackgroundColor=default;startFill=0;endArrow=none;" edge="1" parent="1" source="7xtOGn-ExboBB5QlbtIo-14" target="7xtOGn-ExboBB5QlbtIo-48">
          <mxGeometry relative="1" as="geometry" />
        </mxCell>
        <mxCell id="7xtOGn-ExboBB5QlbtIo-50" style="edgeStyle=none;shape=connector;rounded=0;orthogonalLoop=1;jettySize=auto;html=1;exitX=1;exitY=0.5;exitDx=0;exitDy=0;entryX=0;entryY=0.5;entryDx=0;entryDy=0;strokeColor=default;align=center;verticalAlign=middle;fontFamily=Helvetica;fontSize=11;fontColor=default;labelBackgroundColor=default;startFill=0;endArrow=none;" edge="1" parent="1" source="7xtOGn-ExboBB5QlbtIo-14" target="7xtOGn-ExboBB5QlbtIo-25">
          <mxGeometry relative="1" as="geometry" />
        </mxCell>
        <mxCell id="7xtOGn-ExboBB5QlbtIo-55" style="edgeStyle=none;shape=connector;rounded=0;orthogonalLoop=1;jettySize=auto;html=1;exitX=1;exitY=0.5;exitDx=0;exitDy=0;entryX=0;entryY=0.5;entryDx=0;entryDy=0;strokeColor=default;align=center;verticalAlign=middle;fontFamily=Helvetica;fontSize=11;fontColor=default;labelBackgroundColor=default;startFill=0;endArrow=none;" edge="1" parent="1" source="7xtOGn-ExboBB5QlbtIo-14" target="7xtOGn-ExboBB5QlbtIo-53">
          <mxGeometry relative="1" as="geometry" />
        </mxCell>
        <mxCell id="7xtOGn-ExboBB5QlbtIo-14" value="" style="ellipse;whiteSpace=wrap;html=1;" vertex="1" parent="1">
          <mxGeometry x="91" y="170" width="20" height="20" as="geometry" />
        </mxCell>
        <mxCell id="7xtOGn-ExboBB5QlbtIo-29" style="edgeStyle=none;shape=connector;rounded=0;orthogonalLoop=1;jettySize=auto;html=1;exitX=1;exitY=0.5;exitDx=0;exitDy=0;entryX=0;entryY=0.5;entryDx=0;entryDy=0;strokeColor=default;align=center;verticalAlign=middle;fontFamily=Helvetica;fontSize=11;fontColor=default;labelBackgroundColor=default;startFill=0;endArrow=none;" edge="1" parent="1" source="7xtOGn-ExboBB5QlbtIo-15" target="7xtOGn-ExboBB5QlbtIo-11">
          <mxGeometry relative="1" as="geometry" />
        </mxCell>
        <mxCell id="7xtOGn-ExboBB5QlbtIo-30" style="edgeStyle=none;shape=connector;rounded=0;orthogonalLoop=1;jettySize=auto;html=1;exitX=1;exitY=0.5;exitDx=0;exitDy=0;entryX=0;entryY=0.5;entryDx=0;entryDy=0;strokeColor=default;align=center;verticalAlign=middle;fontFamily=Helvetica;fontSize=11;fontColor=default;labelBackgroundColor=default;startFill=0;endArrow=none;" edge="1" parent="1" source="7xtOGn-ExboBB5QlbtIo-15" target="7xtOGn-ExboBB5QlbtIo-24">
          <mxGeometry relative="1" as="geometry" />
        </mxCell>
        <mxCell id="7xtOGn-ExboBB5QlbtIo-31" style="edgeStyle=none;shape=connector;rounded=0;orthogonalLoop=1;jettySize=auto;html=1;exitX=1;exitY=0.5;exitDx=0;exitDy=0;entryX=0;entryY=0.5;entryDx=0;entryDy=0;strokeColor=default;align=center;verticalAlign=middle;fontFamily=Helvetica;fontSize=11;fontColor=default;labelBackgroundColor=default;startFill=0;endArrow=none;" edge="1" parent="1" source="7xtOGn-ExboBB5QlbtIo-15" target="7xtOGn-ExboBB5QlbtIo-23">
          <mxGeometry relative="1" as="geometry" />
        </mxCell>
        <mxCell id="7xtOGn-ExboBB5QlbtIo-32" style="edgeStyle=none;shape=connector;rounded=0;orthogonalLoop=1;jettySize=auto;html=1;exitX=1;exitY=0.5;exitDx=0;exitDy=0;entryX=0;entryY=0.5;entryDx=0;entryDy=0;strokeColor=default;align=center;verticalAlign=middle;fontFamily=Helvetica;fontSize=11;fontColor=default;labelBackgroundColor=default;startFill=0;endArrow=none;" edge="1" parent="1" source="7xtOGn-ExboBB5QlbtIo-15" target="7xtOGn-ExboBB5QlbtIo-25">
          <mxGeometry relative="1" as="geometry" />
        </mxCell>
        <mxCell id="7xtOGn-ExboBB5QlbtIo-15" value="" style="ellipse;whiteSpace=wrap;html=1;" vertex="1" parent="1">
          <mxGeometry x="91" y="290" width="20" height="20" as="geometry" />
        </mxCell>
        <mxCell id="7xtOGn-ExboBB5QlbtIo-33" style="edgeStyle=none;shape=connector;rounded=0;orthogonalLoop=1;jettySize=auto;html=1;exitX=1;exitY=0.5;exitDx=0;exitDy=0;entryX=0;entryY=0.5;entryDx=0;entryDy=0;strokeColor=default;align=center;verticalAlign=middle;fontFamily=Helvetica;fontSize=11;fontColor=default;labelBackgroundColor=default;startFill=0;endArrow=none;" edge="1" parent="1" source="7xtOGn-ExboBB5QlbtIo-16" target="7xtOGn-ExboBB5QlbtIo-11">
          <mxGeometry relative="1" as="geometry" />
        </mxCell>
        <mxCell id="7xtOGn-ExboBB5QlbtIo-34" style="edgeStyle=none;shape=connector;rounded=0;orthogonalLoop=1;jettySize=auto;html=1;exitX=1;exitY=0.5;exitDx=0;exitDy=0;entryX=0;entryY=0.5;entryDx=0;entryDy=0;strokeColor=default;align=center;verticalAlign=middle;fontFamily=Helvetica;fontSize=11;fontColor=default;labelBackgroundColor=default;startFill=0;endArrow=none;" edge="1" parent="1" source="7xtOGn-ExboBB5QlbtIo-16" target="7xtOGn-ExboBB5QlbtIo-23">
          <mxGeometry relative="1" as="geometry" />
        </mxCell>
        <mxCell id="7xtOGn-ExboBB5QlbtIo-35" style="edgeStyle=none;shape=connector;rounded=0;orthogonalLoop=1;jettySize=auto;html=1;exitX=1;exitY=0.5;exitDx=0;exitDy=0;entryX=0;entryY=0.5;entryDx=0;entryDy=0;strokeColor=default;align=center;verticalAlign=middle;fontFamily=Helvetica;fontSize=11;fontColor=default;labelBackgroundColor=default;startFill=0;endArrow=none;" edge="1" parent="1" source="7xtOGn-ExboBB5QlbtIo-16" target="7xtOGn-ExboBB5QlbtIo-24">
          <mxGeometry relative="1" as="geometry" />
        </mxCell>
        <mxCell id="7xtOGn-ExboBB5QlbtIo-36" style="edgeStyle=none;shape=connector;rounded=0;orthogonalLoop=1;jettySize=auto;html=1;exitX=1;exitY=0.5;exitDx=0;exitDy=0;entryX=0;entryY=0.5;entryDx=0;entryDy=0;strokeColor=default;align=center;verticalAlign=middle;fontFamily=Helvetica;fontSize=11;fontColor=default;labelBackgroundColor=default;startFill=0;endArrow=none;" edge="1" parent="1" source="7xtOGn-ExboBB5QlbtIo-16" target="7xtOGn-ExboBB5QlbtIo-25">
          <mxGeometry relative="1" as="geometry" />
        </mxCell>
        <mxCell id="7xtOGn-ExboBB5QlbtIo-37" style="edgeStyle=none;shape=connector;rounded=0;orthogonalLoop=1;jettySize=auto;html=1;exitX=1;exitY=0.5;exitDx=0;exitDy=0;entryX=0;entryY=0.5;entryDx=0;entryDy=0;strokeColor=default;align=center;verticalAlign=middle;fontFamily=Helvetica;fontSize=11;fontColor=default;labelBackgroundColor=default;startFill=0;endArrow=none;" edge="1" parent="1" source="7xtOGn-ExboBB5QlbtIo-16" target="7xtOGn-ExboBB5QlbtIo-20">
          <mxGeometry relative="1" as="geometry" />
        </mxCell>
        <mxCell id="7xtOGn-ExboBB5QlbtIo-38" style="edgeStyle=none;shape=connector;rounded=0;orthogonalLoop=1;jettySize=auto;html=1;exitX=1;exitY=0.5;exitDx=0;exitDy=0;entryX=0;entryY=0.5;entryDx=0;entryDy=0;strokeColor=default;align=center;verticalAlign=middle;fontFamily=Helvetica;fontSize=11;fontColor=default;labelBackgroundColor=default;startFill=0;endArrow=none;" edge="1" parent="1" source="7xtOGn-ExboBB5QlbtIo-16" target="7xtOGn-ExboBB5QlbtIo-21">
          <mxGeometry relative="1" as="geometry" />
        </mxCell>
        <mxCell id="7xtOGn-ExboBB5QlbtIo-16" value="" style="ellipse;whiteSpace=wrap;html=1;" vertex="1" parent="1">
          <mxGeometry x="91" y="410" width="20" height="20" as="geometry" />
        </mxCell>
        <mxCell id="7xtOGn-ExboBB5QlbtIo-28" style="edgeStyle=none;shape=connector;rounded=0;orthogonalLoop=1;jettySize=auto;html=1;exitX=1;exitY=0.5;exitDx=0;exitDy=0;entryX=0;entryY=0.5;entryDx=0;entryDy=0;strokeColor=default;align=center;verticalAlign=middle;fontFamily=Helvetica;fontSize=11;fontColor=default;labelBackgroundColor=default;startFill=0;endArrow=none;" edge="1" parent="1" source="7xtOGn-ExboBB5QlbtIo-17" target="7xtOGn-ExboBB5QlbtIo-25">
          <mxGeometry relative="1" as="geometry" />
        </mxCell>
        <mxCell id="7xtOGn-ExboBB5QlbtIo-17" value="" style="ellipse;whiteSpace=wrap;html=1;" vertex="1" parent="1">
          <mxGeometry x="91" y="530" width="20" height="20" as="geometry" />
        </mxCell>
        <mxCell id="7xtOGn-ExboBB5QlbtIo-44" style="edgeStyle=none;shape=connector;rounded=0;orthogonalLoop=1;jettySize=auto;html=1;exitX=1;exitY=0.5;exitDx=0;exitDy=0;entryX=0;entryY=0.5;entryDx=0;entryDy=0;strokeColor=default;align=center;verticalAlign=middle;fontFamily=Helvetica;fontSize=11;fontColor=default;labelBackgroundColor=default;startFill=0;endArrow=none;dashed=1;" edge="1" parent="1" source="7xtOGn-ExboBB5QlbtIo-19" target="7xtOGn-ExboBB5QlbtIo-43">
          <mxGeometry relative="1" as="geometry" />
        </mxCell>
        <mxCell id="7xtOGn-ExboBB5QlbtIo-45" style="edgeStyle=none;shape=connector;rounded=0;orthogonalLoop=1;jettySize=auto;html=1;exitX=1;exitY=0.5;exitDx=0;exitDy=0;entryX=0;entryY=0.5;entryDx=0;entryDy=0;strokeColor=default;align=center;verticalAlign=middle;fontFamily=Helvetica;fontSize=11;fontColor=default;labelBackgroundColor=default;startFill=0;endArrow=none;dashed=1;" edge="1" parent="1" source="7xtOGn-ExboBB5QlbtIo-19" target="7xtOGn-ExboBB5QlbtIo-42">
          <mxGeometry relative="1" as="geometry" />
        </mxCell>
        <mxCell id="7xtOGn-ExboBB5QlbtIo-66" style="edgeStyle=none;shape=connector;rounded=0;orthogonalLoop=1;jettySize=auto;html=1;exitX=1;exitY=0.5;exitDx=0;exitDy=0;entryX=0;entryY=0.5;entryDx=0;entryDy=0;strokeColor=default;align=center;verticalAlign=middle;fontFamily=Helvetica;fontSize=11;fontColor=default;labelBackgroundColor=default;startFill=0;endArrow=none;dashed=1;" edge="1" parent="1" source="7xtOGn-ExboBB5QlbtIo-19" target="7xtOGn-ExboBB5QlbtIo-65">
          <mxGeometry relative="1" as="geometry" />
        </mxCell>
        <mxCell id="7xtOGn-ExboBB5QlbtIo-19" value="Gestionar rutas" style="rounded=1;whiteSpace=wrap;html=1;" vertex="1" parent="1">
          <mxGeometry x="359" y="121" width="110" height="60" as="geometry" />
        </mxCell>
        <mxCell id="7xtOGn-ExboBB5QlbtIo-20" value="Crear calendario" style="rounded=1;whiteSpace=wrap;html=1;" vertex="1" parent="1">
          <mxGeometry x="359" y="200" width="110" height="60" as="geometry" />
        </mxCell>
        <mxCell id="7xtOGn-ExboBB5QlbtIo-61" style="edgeStyle=none;shape=connector;rounded=0;orthogonalLoop=1;jettySize=auto;html=1;exitX=1;exitY=0.5;exitDx=0;exitDy=0;entryX=0;entryY=0.5;entryDx=0;entryDy=0;strokeColor=default;align=center;verticalAlign=middle;fontFamily=Helvetica;fontSize=11;fontColor=default;labelBackgroundColor=default;startFill=0;endArrow=none;dashed=1;" edge="1" parent="1" source="7xtOGn-ExboBB5QlbtIo-21" target="7xtOGn-ExboBB5QlbtIo-59">
          <mxGeometry relative="1" as="geometry" />
        </mxCell>
        <mxCell id="7xtOGn-ExboBB5QlbtIo-62" style="edgeStyle=none;shape=connector;rounded=0;orthogonalLoop=1;jettySize=auto;html=1;exitX=1;exitY=0.5;exitDx=0;exitDy=0;entryX=0;entryY=0.5;entryDx=0;entryDy=0;strokeColor=default;align=center;verticalAlign=middle;fontFamily=Helvetica;fontSize=11;fontColor=default;labelBackgroundColor=default;startFill=0;endArrow=none;dashed=1;" edge="1" parent="1" source="7xtOGn-ExboBB5QlbtIo-21" target="7xtOGn-ExboBB5QlbtIo-60">
          <mxGeometry relative="1" as="geometry" />
        </mxCell>
        <mxCell id="7xtOGn-ExboBB5QlbtIo-21" value="Gestionar calendario" style="rounded=1;whiteSpace=wrap;html=1;" vertex="1" parent="1">
          <mxGeometry x="359" y="280" width="110" height="60" as="geometry" />
        </mxCell>
        <mxCell id="7xtOGn-ExboBB5QlbtIo-23" value="Valora y hacer reseñas" style="rounded=1;whiteSpace=wrap;html=1;" vertex="1" parent="1">
          <mxGeometry x="359" y="359" width="110" height="60" as="geometry" />
        </mxCell>
        <mxCell id="7xtOGn-ExboBB5QlbtIo-24" value="Descargar fichas de rutas" style="rounded=1;whiteSpace=wrap;html=1;" vertex="1" parent="1">
          <mxGeometry x="359" y="520" width="110" height="60" as="geometry" />
        </mxCell>
        <mxCell id="7xtOGn-ExboBB5QlbtIo-25" value="Ver catalogo rutas" style="rounded=1;whiteSpace=wrap;html=1;" vertex="1" parent="1">
          <mxGeometry x="359" y="600" width="110" height="60" as="geometry" />
        </mxCell>
        <mxCell id="7xtOGn-ExboBB5QlbtIo-42" value="modifica rutas" style="shape=hexagon;perimeter=hexagonPerimeter2;whiteSpace=wrap;html=1;fixedSize=1;fontFamily=Helvetica;fontSize=11;fontColor=default;labelBackgroundColor=default;" vertex="1" parent="1">
          <mxGeometry x="580" y="160" width="120" height="40" as="geometry" />
        </mxCell>
        <mxCell id="7xtOGn-ExboBB5QlbtIo-43" value="borra rutas" style="shape=hexagon;perimeter=hexagonPerimeter2;whiteSpace=wrap;html=1;fixedSize=1;fontFamily=Helvetica;fontSize=11;fontColor=default;labelBackgroundColor=default;" vertex="1" parent="1">
          <mxGeometry x="580" y="240" width="120" height="40" as="geometry" />
        </mxCell>
        <mxCell id="7xtOGn-ExboBB5QlbtIo-48" value="Gestionar aplicación y conceder acceso" style="rounded=1;whiteSpace=wrap;html=1;" vertex="1" parent="1">
          <mxGeometry x="359" y="681" width="110" height="60" as="geometry" />
        </mxCell>
        <mxCell id="7xtOGn-ExboBB5QlbtIo-51" value="&amp;lt;&amp;lt;include&amp;gt;&amp;gt;" style="text;html=1;align=center;verticalAlign=middle;resizable=0;points=[];autosize=1;strokeColor=none;fillColor=none;fontFamily=Helvetica;fontSize=11;fontColor=default;labelBackgroundColor=default;rotation=0;" vertex="1" parent="1">
          <mxGeometry x="510" y="136" width="80" height="30" as="geometry" />
        </mxCell>
        <mxCell id="7xtOGn-ExboBB5QlbtIo-52" value="&amp;lt;&amp;lt;include&amp;gt;&amp;gt;" style="text;html=1;align=center;verticalAlign=middle;resizable=0;points=[];autosize=1;strokeColor=none;fillColor=none;fontFamily=Helvetica;fontSize=11;fontColor=default;labelBackgroundColor=default;rotation=45;" vertex="1" parent="1">
          <mxGeometry x="520" y="190" width="80" height="30" as="geometry" />
        </mxCell>
        <mxCell id="7xtOGn-ExboBB5QlbtIo-53" value="Eliminar reseñas" style="rounded=1;whiteSpace=wrap;html=1;" vertex="1" parent="1">
          <mxGeometry x="360" y="440" width="110" height="60" as="geometry" />
        </mxCell>
        <mxCell id="7xtOGn-ExboBB5QlbtIo-59" value="modifica calendarios" style="shape=hexagon;perimeter=hexagonPerimeter2;whiteSpace=wrap;html=1;fixedSize=1;fontFamily=Helvetica;fontSize=11;fontColor=default;labelBackgroundColor=default;" vertex="1" parent="1">
          <mxGeometry x="580" y="320" width="120" height="40" as="geometry" />
        </mxCell>
        <mxCell id="7xtOGn-ExboBB5QlbtIo-60" value="borra calendarios" style="shape=hexagon;perimeter=hexagonPerimeter2;whiteSpace=wrap;html=1;fixedSize=1;fontFamily=Helvetica;fontSize=11;fontColor=default;labelBackgroundColor=default;" vertex="1" parent="1">
          <mxGeometry x="580" y="400" width="120" height="40" as="geometry" />
        </mxCell>
        <mxCell id="7xtOGn-ExboBB5QlbtIo-63" value="&amp;lt;&amp;lt;include&amp;gt;&amp;gt;" style="text;html=1;align=center;verticalAlign=middle;resizable=0;points=[];autosize=1;strokeColor=none;fillColor=none;fontFamily=Helvetica;fontSize=11;fontColor=default;labelBackgroundColor=default;rotation=45;" vertex="1" parent="1">
          <mxGeometry x="469" y="360" width="80" height="30" as="geometry" />
        </mxCell>
        <mxCell id="7xtOGn-ExboBB5QlbtIo-64" value="&amp;lt;&amp;lt;include&amp;gt;&amp;gt;" style="text;html=1;align=center;verticalAlign=middle;resizable=0;points=[];autosize=1;strokeColor=none;fillColor=none;fontFamily=Helvetica;fontSize=11;fontColor=default;labelBackgroundColor=default;rotation=15;" vertex="1" parent="1">
          <mxGeometry x="480" y="285" width="80" height="30" as="geometry" />
        </mxCell>
        <mxCell id="7xtOGn-ExboBB5QlbtIo-65" value="valida rutas" style="shape=hexagon;perimeter=hexagonPerimeter2;whiteSpace=wrap;html=1;fixedSize=1;fontFamily=Helvetica;fontSize=11;fontColor=default;labelBackgroundColor=default;" vertex="1" parent="1">
          <mxGeometry x="580" y="81" width="120" height="40" as="geometry" />
        </mxCell>
        <mxCell id="7xtOGn-ExboBB5QlbtIo-67" value="&amp;lt;&amp;lt;include&amp;gt;&amp;gt;" style="text;html=1;align=center;verticalAlign=middle;resizable=0;points=[];autosize=1;strokeColor=none;fillColor=none;fontFamily=Helvetica;fontSize=11;fontColor=default;labelBackgroundColor=default;rotation=-30;" vertex="1" parent="1">
          <mxGeometry x="480" y="86" width="80" height="30" as="geometry" />
        </mxCell>
      </root>
    </mxGraphModel>
  </diagram>
</mxfile>
